<svg xmlns="http://www.w3.org/2000/svg" version="1.1" xmlns:xlink="http://www.w3.org/1999/xlink" xmlns:svgjs="http://svgjs.dev/svgjs" width="1000" height="623" viewBox="0 0 1000 623"><g transform="matrix(1,0,0,1,-0.6060606060606233,0.2522267206477409)"><svg viewBox="0 0 396 247" data-background-color="#161618" preserveAspectRatio="xMidYMid meet" height="623" width="1000" xmlns="http://www.w3.org/2000/svg" xmlns:xlink="http://www.w3.org/1999/xlink"><g id="tight-bounds" transform="matrix(1,0,0,1,0.2400000000000091,-0.09999999999999432)"><svg viewBox="0 0 395.52 247.2" height="247.2" width="395.52"><g><svg></svg></g><g><svg viewBox="0 0 395.52 247.2" height="247.2" width="395.52"><g><g><path xmlns="http://www.w3.org/2000/svg" d="M114.242 0h10.594l0 69.597-10.594 0zM124.836 247.2h-10.594v-69.597h10.594zM254.793 0h15.185l-70.014 69.597-15.185 0zM281.278 247.2h-15.185l-69.977-69.597 15.185 0z" fill="#ffffff" fill-rule="nonzero" stroke="none" stroke-width="1" stroke-linecap="butt" stroke-linejoin="miter" stroke-miterlimit="10" stroke-dasharray="" stroke-dashoffset="0" font-family="none" font-weight="none" font-size="none" text-anchor="none" style="mix-blend-mode: normal" data-fill-palette-color="tertiary"></path></g></g><g transform="matrix(1,0,0,1,2.842170943040401e-14,81.79707317073171)"><svg viewBox="0 0 395.5199999999999 83.60585365853657" height="83.60585365853657" width="395.5199999999999"><g><svg viewBox="0 0 395.5199999999999 83.60585365853657" height="83.60585365853657" width="395.5199999999999"><g><svg viewBox="0 0 395.5199999999999 83.60585365853657" height="83.60585365853657" width="395.5199999999999"><g><svg viewBox="0 0 395.5199999999999 83.60585365853657" height="83.60585365853657" width="395.5199999999999"><g><svg viewBox="0 0 395.5199999999999 83.60585365853657" height="83.60585365853657" width="395.5199999999999" id="textblock"><g><svg viewBox="0 0 395.5199999999999 83.60585365853657" height="83.60585365853657" width="395.5199999999999"><g transform="matrix(1,0,0,1,0,0)"><svg width="395.5199999999999" viewBox="4.949999809265137 -35.04999923706055 166.04000854492188 35.099998474121094" height="83.60585365853657" data-palette-color="#ffffff"><path d="M4.95-35L6.45-35 6.45 0 4.95 0 4.95-35ZM24.85-35L27-35 10.2-18.3 28.6 0 26.45 0 8.05-18.3 24.85-35ZM34.5 0L34.5-1.5 52.9-1.5 42.3-30.65 31.15 0 29.55 0 42.3-35.05 55.05 0 34.5 0ZM93.09-33.5L61.8-33.5 61.8-35 95.25-35 82.5 0.05 76-17.75 69.55 0.05 56.8-35 58.4-35 69.55-4.35 76-22.15 82.5-4.35 93.09-33.5ZM118.04-1.5L118.04 0 97.64 0 115.44-33.5 98.94-33.5 98.94-35 117.94-35 100.14-1.5 118.04-1.5ZM142.04-1.5L142.04 0 121.64 0 139.44-33.5 122.94-33.5 122.94-35 141.94-35 124.14-1.5 142.04-1.5ZM150.74-33.5L150.74-35 170.99-35 158.49-15 158.49 0 156.99 0 156.99-15 144.49-35 146.24-35 157.74-16.65 168.29-33.5 150.74-33.5Z" opacity="1" transform="matrix(1,0,0,1,0,0)" fill="#ffffff" class="undefined-text-0" data-fill-palette-color="primary" id="text-0"></path></svg></g></svg></g></svg></g></svg></g><g></g></svg></g></svg></g></svg></g></svg></g><defs></defs></svg><rect width="395.52" height="247.2" fill="none" stroke="none" visibility="hidden"></rect></g></svg></g></svg>